<svg xmlns="http://www.w3.org/2000/svg" version="1.0" viewBox="0 0 24 24">
  <path fill="currentColor" d="m16.77.05-.57.1-.74.17-.68.2-1.47.64-.16.05-.1.05-.22.1-.52.32a13.4 13.4 0 0 0-5.26 5.94L7 5.1c-.1 0-.68.63-1.16 1.2Q4.79 7.95 4.32 9.88l-.16.47-.05.26-.05.27-.16 1.26-.05.42q-.22 1.85-.16 3.73l.53-1.21 1-1.95a29 29 0 0 1 2.83-4.2q1.45-1.6 3.26-2.78 1.05-.62 2.2-1l.22-.05q.2-.06-.16.15L12.4 6l-.05.05-.26.16q-1.76 1.43-3.2 3.15l-.53.58-.16.21-.26.37a13 13 0 0 0-1.79 2.84q-.72 1.35-.9 2.89-.08 1.4.17 2.78a6.7 6.7 0 0 0 2.52 4c.1.1 1.05.57 1.42.68.84.26.84.26 2.41.26q1.23.14 2.42-.21v-.05h-.05c-.21.1-1.95.1-2.47 0l-.32-.06-.26-.1h-.16l-.05-.05-.05-.06a6 6 0 0 1-1.79-.79 7 7 0 0 1-1.9-1.89l-.15-.2-.05-.06-.16-.37q-.15-.21-.1-.26l-.06-.05-.05-.05-.05-.22-.1-.15-.11-.37-.16-.74c-.05 0-.1-1.52-.05-1.94l.37-1.26a5 5 0 0 1 2.67-2.37l.16-.05q.38.06-.16-.31l-.31-.27.58-.36c1-.58 3.1-2.05 3.68-2.53l.52-.36.68-.53.37-.31.53-.48q1.47-1.41 2.78-3l.21-.36.37-.58.21-.36.05-.11.16-.37.32-.84.36-1.36.1-.43V0H18.3z" transform-origin="11.801px 1px"/>
  <path fill="currentColor" d="M15.14 11.2q0 .2-.15.15-.38.15-.05.2h.15l.05.17.06.26q.16.1.16-.37l.15-.05.21-.1-.2-.06-.16-.05-.06-.26q-.1-.26-.16.1m-3.04 1.16-.05.16q0 .26-.21.15-.21.06-.16.16l.16.05q.26-.04.2.21.12.38.22 0v-.16l.15-.05q.42-.1 0-.2-.2 0-.2-.16 0-.27-.11-.16m7.3 1.31.16.1-.1-.1zm.1.47c.06.63 0 1.63-.1 2.26q-.32 1.52-1.26 2.73a7.4 7.4 0 0 1-4.47 2.63h-1.94a6 6 0 0 1-1.79-.52l-.36-.16-.85-.53-.05-.05-.16-.1a7 7 0 0 1-1.57-1.74l-.05-.05-.1-.21-.17-.16-.05.1q.1 0 .1.16l.64 1.32q.75 1.13 1.83 1.94l.9.53c.05.1 1.31.52 1.73.63l1 .05.47.05h.32a7 7 0 0 0 2.47-.63l.05-.05.32-.16a7.5 7.5 0 0 0 2.62-2.57 6.5 6.5 0 0 0 .9-3.47l-.1-1.05a4 4 0 0 0-.32-1.26z" transform-origin="11.801px 1px"/>
  <path fill="currentColor" d="m16.2 14.45-.06.2q0 .17-.15.17-.27 0-.21.1l.26.05q.16 0 .1.21 0 .21.1.21t.11-.2.05-.16l.32-.1-.26-.11q-.16-.06-.16-.16-.06-.37-.1-.21m-7.68.31v.21q.06.16-.15.16-.37.1-.1.16h.15q.16.1.1.26-.1.1.06.16.15.05.15-.21 0-.16.11-.21.47-.06.1-.16-.31-.05-.26-.16.05-.31-.16-.2m3.68.83v.16l-.05.1h-.21l-.16.06.16.21h.16l.1.1q0 .32.1.27l.06-.21q0-.16.1-.16h.06l.16-.05q.15-.06.05-.16h-.21l-.1-.05-.06-.06v-.2l-.1-.11zm3 1.74-.06.2q.06.22-.15.17-.21 0-.21.1l.05.1q.37-.1.31.16.06.48.21 0 0-.25.06-.15.2.05.31-.1l-.2-.11q-.16 0-.22-.16 0-.27-.1-.21m-5.57.52v.21q-.05.16-.21.16l-.16.05v.1l.16.06q.26-.05.2.16 0 .31.11.2l.05-.2q0-.21.27-.16.15-.05.1-.16l-.15-.05q-.21.05-.21-.1 0-.38-.16-.27m-3.1.27q.05.1.1 0v-.06q-.1-.04-.1.06m7.1.36q.09.21-.27.21l-.1.06q-.06.15.26.15.16 0 .1.16 0 .27.1.27l.11-.37.16-.06q.16 0 .16-.1t-.16-.1l-.16-.06-.05-.1v-.16l-.1-.05z" transform-origin="11.801px 1px"/>
</svg>