<svg xmlns="http://www.w3.org/2000/svg" viewBox="0 0 24 24">
  <path fill="currentColor" d="M11.88 0h.14q.3 0 .6.12t.56.29l8.4 4.84c.53.27.92.8 1.01 1.38l.04.45v9.8q.02.5-.18.96a2 2 0 0 1-.26.43l-.06.05.02.02-.04-.02.01.04h-.04l.02.03-.04-.01.01.03h-.02l-.05.05c-.2.18-.46.3-.7.45l-.33.2-7.65 4.4-.54.3a2 2 0 0 1-.79.19h-.07q-.45 0-.84-.21l-.06-.04-8.53-4.91q-.28-.14-.53-.34a2 2 0 0 1-.66-1.38V6.86c.02-.64.37-1.21.92-1.54L6.6 2.8l.06-.04.08-.04.15-.1.87-.5L9.93.89V.87l.04-.03h.01l.73-.42q.24-.15.49-.26.32-.15.68-.16m-2.8 4.5c-.15.03-.29-.05-.4-.15-.05.05-.04.14-.12.17-.12.07-.27.06-.4.05q-.12 0-.2.07c-.16.07-.34.04-.5.1-.16.03-.28.14-.44.16-.15.05-.32.04-.47.11-.01.14-.13.23-.25.26-.11.04-.24 0-.33.08q-.17.16-.29.34c-.13.17-.31.32-.35.54-.09.18-.3.23-.43.37-.06.08.02.18.02.26 0 .27-.12.52-.2.77l-.08.44q-.07.14-.07.28c.02.07.05.14 0 .2-.07.15-.25.18-.39.24.12.13.28.25.32.43a.2.2 0 0 1-.11.2c-.09.03-.11.13-.13.2q-.03.28.07.54c.04.1.12.2.14.3.02.07-.03.14-.06.2-.04.09-.02.19-.05.28q-.05.08-.12.12c.05.1.18.13.25.21s.15.17.11.27c-.03.06-.1.05-.16.06q-.08.02-.05.08c.06.06.16.06.22.13-.07.11-.21.14-.32.2.13.03.26.02.38.07.08.07.06.23-.05.27q-.22.07-.4.22.1.06.14.15c.03.1 0 .2.06.28.08.1.24.09.3.2-.05.07-.14.08-.19.15.11.09.26 0 .38 0l-.34.34c-.02.03-.08.09-.03.12.16.1.35.1.52.18-.11.21-.3.38-.4.6.13.08.3.02.43.08q.08.04.06.14-.05.2-.14.39l.31.1q.07.04.08.13 0 .24.02.46 0 .06.04.1.05 0 .11.03.04.07.01.16c-.05.26-.16.5-.21.76.22-.02.43-.13.65-.13.28.3.5.67.83.93.04.16-.03.32-.01.49.1-.03.2-.12.32-.1l-.02.08c.08.04.17.02.24.09q.2.23.23.54.01.11.1.16c.17.07.36.06.54.11q.08.02.1.1l.11.32c.14-.04.26-.13.4-.16q.11 0 .13.1.05.2.08.42l.6-.59q.06.3.08.57c0 .15.07.29.12.42q.22-.25.43-.52l.02.35c.05-.1.07-.22.15-.3.13.1.1.3.22.42.09.06.22 0 .3.08l.1.15.05-.04c.15-.23.17-.51.34-.72.05-.06.1 0 .1.05q.07.3.08.6l.18-.38v-.01l.15.42q.03.05.07.08c.04-.12.01-.25.04-.37.01-.05.07-.07.09-.12l.04-.23.06.11q.11.34.25.67l.08.12q.08-.12.2-.19c.08-.04.17-.02.24-.08.1-.12.06-.33.21-.41.02.1.07.22.17.27l-.04-.54q-.01-.04.04-.07c.14.12.21.3.35.43.05.04.1-.03.12-.07.09-.15.03-.33.1-.48.26.12.42.38.65.54.09-.28.04-.57.13-.84.17 0 .31.11.47.16q.07-.16.11-.34a.2.2 0 0 1 .15-.12q.27-.04.55-.06c.06-.21.09-.44.21-.63a.3.3 0 0 1 .26-.15c.18 0 .31.12.47.17 0-.24-.08-.47-.12-.7l.65-.65c.25.06.5.15.76.15-.02-.27-.13-.52-.19-.78q-.02-.1.02-.17.11-.08.25-.12c.07-.13.04-.3.05-.44q-.02-.14.07-.23l.33-.12c-.04-.13-.12-.26-.15-.4q-.02-.08.07-.12c.14-.04.29 0 .42-.07-.1-.22-.27-.4-.41-.6q.24-.06.47-.15c.05-.02.1-.08.06-.13q-.16-.2-.37-.36l.45.06q-.15-.11-.26-.25c.1-.05.2-.07.29-.15.1-.08.02-.23.1-.33.03-.03.1-.04.1-.1-.09-.18-.33-.16-.42-.32a.13.13 0 0 1 .05-.18c.09-.06.2-.05.3-.06-.1-.07-.25-.1-.31-.2q.15-.12.32-.19c-.1-.02-.21 0-.3-.07l.05-.22c.06-.13.24-.15.32-.27q-.08-.04-.12-.1c-.06-.11-.02-.24-.07-.34a.5.5 0 0 1-.01-.37c.03-.08.13-.07.2-.07.04 0 .12 0 .12-.06-.05-.11-.16-.18-.24-.28a.6.6 0 0 1-.1-.5c.02-.1.13-.16.2-.22-.08-.12-.2-.23-.24-.37s.1-.24.14-.36c.02-.06-.05-.1-.09-.13a.5.5 0 0 1-.2-.47l.07-.2c-.01-.08-.12-.1-.15-.16.01-.07.08-.11.12-.17.05-.05.11-.13.05-.18-.13-.11-.32-.13-.43-.25q-.05-.07 0-.12l.16-.1-.15-.18-.34-.38c-.09-.1-.14-.23-.24-.32-.13-.14-.31-.22-.42-.38q-.02-.13-.13-.2c-.3-.2-.68-.1-.98-.29a1 1 0 0 0-.32-.13l-.26-.04q-.06-.01-.05-.07-.01-.15.01-.3c-.16.08-.31.19-.49.24q-.08.02-.16 0c-.06-.05-.01-.15-.08-.19q-.15-.02-.28.02-.32.1-.66.1-.69.05-1.37.14-.16.02-.33-.01-.12-.08-.22-.2l-.6.38-.35-.42c-.09.12-.15.26-.27.34-.14 0-.3-.08-.34-.22q-.08-.09-.2-.1-.22-.07-.43-.1-.15-.03-.26.07c-.11.08-.25.15-.39.12-.13-.04-.17-.17-.23-.28-.1.12-.22.26-.4.28m0 0" transform-origin="1.295px 0"/>
  <path fill="currentColor" d="M11.57 7.68c.1-.07.15-.18.26-.25.03.09.06.2.15.24.15-.03.28-.14.41-.21l.38.67.3-.58q.03.28.1.54.38-.27.75-.56c.17.18.31.4.51.55.11.08.26.02.38.08.15.05.23.2.37.26q.14.08.3.1c.15.04.23.17.3.29q.2.3.47.58.16.12.31.26-.5.53-1.03 1.05c0-.22.02-.44-.04-.65q-1.3.2-2.6.43v.33l-1.1.02h-.65v-.35l-1.6-.26-1.02-.16v.64q-.55-.52-1.06-1.08-.08-.07-.12-.16.06-.14.16-.25l.27-.4q.1-.15.22-.25c.08-.05.18-.05.27-.09q.18-.08.35-.2.1-.11.24-.15c.08-.03.16.02.24-.02q.12-.07.21-.18l.33-.4.75.58.12-.55q.13.28.3.55c.15-.16.19-.4.36-.54.09-.07.2-.01.28.05.04.03.08.09.13.07m0 0" transform-origin="1.295px 0"/>
  <path fill="currentColor" d="M6.74 10.05 7 9.78l1.52 1.5v.86l1.93-.31q.3-.04.59-.12.09-.03.1-.12v-.34h1.77v.37c0 .06.07.08.12.1l.45.1q1.01.14 2.04.32l.01-.86.83-.82q.22-.21.45-.4.07-.06.14-.07.08.06.03.14l-.54.67.6.08-.61.3.53.31q.07.05.1.12c-.03.15-.14.26-.23.37.1.06.26.08.3.21a.5.5 0 0 0-.27.17c.01.1.14.14.17.24.05.09-.03.18-.1.24q-.25.15-.51.28l.6.3c-.18.04-.37.04-.54.1.16.27.38.48.52.76-.27.28-.62.5-.85.82-.12.16-.18.35-.3.52l-2.4 1.37-.28-.3c0 .15.02.3-.03.45-.03.05-.07 0-.09-.02-.1-.19-.15-.4-.25-.58-.15.32-.25.65-.42.96-.01.05-.06.02-.09 0q-.14-.1-.27-.22l-.2.34c-.03-.17-.05-.34-.16-.48-.04-.05-.11-.01-.14.03q-.1.14-.26.2c-.09.02-.14-.07-.18-.13q-.14-.29-.24-.57c-.06.12-.09.26-.18.36-.04.05-.1 0-.13-.05q-.07-.22-.1-.46l-.25.3q-1.04-.59-2.07-1.2c-.16-.1-.34-.19-.43-.36a2 2 0 0 0-.5-.7c-.06-.06-.15-.06-.21-.1q-.13-.11-.22-.22l.55-.73-.53-.1.56-.3q-.23-.1-.43-.23c-.1-.06-.2-.16-.17-.28.02-.1.14-.15.16-.24-.02-.08-.1-.12-.14-.2-.01-.1.14-.14.14-.25-.04-.08-.13-.13-.15-.22-.02-.12.08-.2.16-.26q.2-.15.42-.26l-.55-.29.54-.1zm3.37 3.14q.21.17.45.31l1.24.76v1.22l-.63.23q-.34.08-.65.21-.06.03-.06.1l.18-.01q.64-.14 1.25-.32c.42.09.82.22 1.24.28q.14.03.29.02v-.05q-.15-.1-.31-.13-.57-.13-1.12-.33l.03-1.22q.87-.52 1.73-1.08-.42-.03-.84-.02h-2.04q-.39 0-.76.03m.1 1.2h-.05l.02.05h-.04c-.02.05.02.13.1.13.06.01.13-.05.12-.12 0-.07-.09-.1-.14-.1zm.43 0c-.06 0-.04.08-.04.12l.05.05h.1l.05-.05v-.1l-.05-.05c-.04.01-.09-.01-.1.03m.46-.03-.05.05v.11l.04.04h.1l.06-.05q0-.06-.03-.12zm1.36.02c-.06 0-.04.08-.05.13l.05.05h.1l.05-.05c0-.04.02-.13-.05-.12v-.03q-.06-.01-.1.02m.47-.02c-.06.04-.05.1-.05.16.04.05.18.07.17-.02l.03.01-.03-.12zm.41.04v.15h.17v-.15q-.08-.07-.17 0m-3.19.46q-.03.04-.03.09l.04-.01-.02.05h.04V15q.08.01.15-.04v-.12l-.05-.03c-.05 0-.13-.02-.13.04m.49-.04-.05.05v.1l.05.04h.1l.04-.05v-.1l-.04-.04zm.46 0-.05.04v.1l.05.05h.1v-.03l.03.02-.01-.04h.03v-.1l-.03.01c.02-.07-.07-.05-.12-.05m1.36 0-.04.05v.1l.04.04h.1l.05-.05v-.1l-.04-.04zm.47 0-.05.04v.1l.05.05h.1c.05 0 .07-.11.02-.12.01-.07-.08-.05-.12-.05m.44 0v.03h-.04l.02.04h-.03v.07l.16.02h-.1l-.07-.01c.06.04.14.07.2.01 0-.04.03-.11-.02-.14q-.05-.04-.12-.02m-2.75.46-.03.05v.09h.03v.04l.04-.03v.04q.05 0 .08-.03l.03.01-.02-.03c.06 0 .03-.06.03-.1-.02-.07-.1-.04-.16-.04m2.3 0q-.03 0-.04.03c0 .04-.03.15.05.13v.03h.07l.08-.07v-.08l-.05-.04zm0 0" transform-origin="1.295px 0"/>
</svg>