<svg xmlns="http://www.w3.org/2000/svg" viewBox="0 0 24 24">
  <path fill="currentColor" d="M22.8 16.799h-1.2V7.835c-.002-.85-.452-1.636-1.183-2.069l-7.2-4.236c-.752-.44-1.683-.44-2.434 0l-7.2 4.236c-.732.433-1.181 1.219-1.183 2.069v8.964H1.2V7.835c.003-1.275.677-2.454 1.775-3.103l7.2-4.235c1.126-.663 2.524-.663 3.65 0l7.2 4.235c1.098.649 1.772 1.828 1.775 3.103zm1.2 1.2v-.6H0v.6h1.8v.6H0v.6h3v.6H.6v.6h6v.6H3v.6h6v.6h-.6v.6h7.2v-.6H15v-.6h6v-.6h-3.6v-.6h6v-.6H21v-.6h3v-.6h-1.8v-.6z"/>
  <path fill="currentColor" d="M19.164 14.363c-1.165 2.579-3.734 4.237-6.564 4.236-3.978 0-7.2-3.222-7.2-7.2 0-2.922 1.74-5.436 4.236-6.564C9.228 5.741 9 6.743 9 7.799c0 3.978 3.222 7.2 7.2 7.2 1.056 0 2.058-.228 2.964-.636m.13-3.598-.334-.833-.334.833-.832.334.832.333.334.833.334-.833.832-.333z"/>
  <path fill="currentColor" d="m14.434 12.025.266.667.266-.667.668-.266-.668-.267-.266-.667-.266.667-.668.267zm2.4 1.633.199-.5.501-.2-.501-.2-.199-.5-.2.5-.501.2.501.2zm3.6-2.526.199-.501.501-.2-.501-.199-.199-.501-.2.501-.501.199.501.2zm-5.467-3.074.2-.5.5-.2-.5-.2-.2-.5-.2.5-.5.2.5.2zM3.96 8.799l.2-.501.5-.199-.5-.2-.2-.501-.2.501-.5.2.5.199zm-.026 5.466-.267.667-.667.266.667.267.267.667.266-.667.667-.267-.667-.266z"/>
</svg>